Coordinates
version=1
nRows=17
nColumns=36
inDegrees=yes

Units are S.I. units (second, meters, Newtons, ...)
If the header above contains a line with 'inDegrees', this indicates whether rotational values are in degrees (yes) or radians (no).

endheader
time	pelvis_tilt	pelvis_list	pelvis_rotation	pelvis_tx	pelvis_ty	pelvis_tz	hip_flexion_r	hip_adduction_r	hip_rotation_r	knee_angle_r	knee_angle_r_beta	ankle_angle_r	subtalar_angle_r	mtp_angle_r	hip_flexion_l	hip_adduction_l	hip_rotation_l	knee_angle_l	knee_angle_l_beta	ankle_angle_l	subtalar_angle_l	mtp_angle_l	lumbar_extension	lumbar_bending	lumbar_rotation	arm_flex_r	arm_add_r	arm_rot_r	elbow_flex_r	pro_sup_r	arm_flex_l	arm_add_l	arm_rot_l	elbow_flex_l	pro_sup_l
      0.00000000	     -7.02607111	     -0.54376701	     -0.07048131	      0.25080444	      1.30496269	     -0.57150518	      4.46574887	      0.71606083	     -0.47849011	      2.64318526	      0.04613229	      0.27949096	     -9.77185348	     -6.93636252	      3.79058112	     -0.79070273	      2.41923010	      3.53611387	      0.06171683	      3.74318356	     -7.30383008	     -6.93636252	      4.80577079	     -0.60429769	      1.60526673	     -4.55957037	     -9.45345992	     -3.51239079	     25.08284151	     92.92689100	      0.39402609	    -10.52753921	      6.14673610	     19.02455353	     91.02964331
      0.01666670	     -6.76584058	     -0.43378476	     -0.37952673	      0.25027584	      1.30622074	     -0.57125761	      3.43392073	      0.70262504	     -0.12424381	      1.52319221	      0.02658472	      1.88756477	     -8.34142191	     -7.15212811	      3.03324022	     -0.61181308	      1.36440469	      2.74465012	      0.04790318	      3.72840783	     -7.46840280	     -7.15212811	      4.05095680	     -0.79702522	      1.89454849	     -4.48661330	     -9.10653377	     -5.95023714	     25.09125672	    100.04088116	      0.02438545	     -9.93866902	      2.01341329	     19.43554512	     96.18280414
      0.03333330	     -6.44377316	     -0.46241576	     -0.38186765	      0.24928813	      1.30791250	     -0.57151834	      2.99122250	      0.89204721	      0.26896453	      1.49007531	      0.02600672	      2.36602043	     -8.73080866	     -7.29633443	      2.35057401	     -0.56048376	      1.26554621	      2.16459673	      0.03777934	      3.88305921	     -7.29102868	     -7.29633443	      3.51643321	     -0.88141305	      1.77013799	     -4.09676803	     -9.40695802	     -3.40173354	     24.40126035	     99.66697311	      0.68770035	     -9.80687292	      3.43296796	     18.43517501	     95.29112283
      0.05000000	     -6.42838533	     -0.49398115	     -0.21398011	      0.24832831	      1.31284878	     -0.57153472	      3.04870267	      0.96451271	     -0.15774938	      1.68519929	      0.02941228	      2.71243297	     -8.93819808	     -7.29703745	      2.30780396	     -0.51239459	      0.93044406	      2.08165098	      0.03633166	      4.05538559	     -7.34351051	     -7.29703745	      3.36992687	     -0.91116270	      1.56783291	     -4.11730880	     -9.38242242	     -3.43742659	     24.43688883	     99.72217623	      0.90490890	     -9.59210964	      3.40056472	     18.47237095	     95.32008320
      0.06666670	     -6.28758662	     -0.34766185	     -0.30974796	      0.24743140	      1.31260258	     -0.57199267	      3.04934893	      0.86216688	     -0.44757846	      2.07378500	      0.03619438	      3.58824457	     -8.41277164	     -7.39404291	      2.18178547	     -0.31775676	      0.26703106	      2.13886651	      0.03733026	      4.45344484	     -6.61406008	     -7.39404291	      3.04382839	     -1.08375896	      1.56027555	     -3.83918813	     -9.10681249	     -5.19703104	     24.45532482	    104.44845429	      1.09225739	     -9.14345086	      0.72211774	     18.17057885	     98.63595827
      0.08333330	     -6.44790488	     -0.18045681	     -0.46546516	      0.24587585	      1.30871469	     -0.57147344	      3.47600752	      0.70389549	     -0.48740579	      2.51270003	      0.04385489	      3.92512924	     -8.68529327	     -7.40534148	      2.35939669	     -0.11489848	     -0.18578790	      2.26546633	      0.03953985	      4.41981736	     -6.33287577	     -7.40534148	      3.08301014	     -1.25902023	      1.71976644	     -3.61961914	     -9.08745527	     -4.37459981	     24.06830822	    104.08897264	      1.26594071	     -9.08378185	      1.04204603	     17.88051110	     98.03932091
      0.10000000	     -6.34612503	      0.03353659	     -0.55725831	      0.25342578	      1.30553649	     -0.57507487	      3.47952414	      0.42470445	     -0.73587298	      2.87472938	      0.05017349	      4.33056954	     -8.68667078	     -7.42171486	      2.15243577	      0.15488655	     -0.67302766	      2.32264539	      0.04053781	      4.47386725	     -5.99636346	     -7.42171486	      2.89662516	     -1.42973562	      1.83335792	     -3.64720843	     -9.10003478	     -4.18476972	     24.01550037	    104.69931867	      1.02793447	     -8.93270756	      0.49046758	     18.06058542	     98.40018092
      0.11666670	     -6.38694910	      0.19840257	     -0.59551386	      0.24401307	      1.30558733	     -0.57141531	      3.76430191	      0.24370559	     -0.84638489	      3.27619314	      0.05718036	      4.58696605	     -8.99743079	     -7.42269804	      2.29249080	      0.31842047	     -1.07287331	      2.55656355	      0.04462045	      4.48421607	     -5.86636106	     -7.42269804	      2.72172455	     -1.58639072	      1.95807086	     -3.52232556	     -9.04325677	     -4.18445250	     23.98001393	    104.76767039	      1.15604517	     -8.95134187	      0.41100776	     18.13679491	     98.45375535
      0.13333330	     -6.45880590	      0.34586678	     -0.61708781	      0.24414847	      1.30180286	     -0.57158086	      4.00281299	      0.09555860	     -0.87300099	      3.60424923	      0.06290602	      4.60313479	     -9.56076634	     -7.42823129	      2.47866572	      0.45601446	     -1.39912061	      2.74925002	      0.04798346	      4.59044487	     -5.57943344	     -7.42823129	      2.61002416	     -1.77418488	      2.07961779	     -3.28926637	     -8.98107138	     -3.78213159	     23.65349122	    103.75120504	      1.19216729	     -8.95097339	      0.17777329	     18.16051699	     97.10535890
      0.15000000	     -6.51908941	      0.48116389	     -0.62917316	      0.24321126	      1.29860686	     -0.57137040	      4.23391085	     -0.03867240	     -1.00050889	      3.93519309	      0.06868208	      4.70653783	     -9.77178847	     -7.44267828	      2.70180386	      0.58207354	     -1.75370410	      3.06672887	      0.05352452	      4.72634583	     -5.17413095	     -7.44267828	      2.37359667	     -1.93477074	      2.00388197	     -3.25579432	     -9.08315966	     -3.05993790	     24.01904258	    105.20713831	      1.07832044	     -9.15515589	      0.33717994	     18.70030031	     98.90049424
      0.16666670	     -6.51498542	      0.57740799	     -0.62546877	      0.24349528	      1.29887115	     -0.57168395	      4.33621681	     -0.11530526	     -0.99097749	      4.23608184	      0.07393358	      4.77175190	    -10.14921952	     -7.44777843	      2.88735996	      0.67034484	     -1.83888834	      3.47712720	      0.06068732	      4.79492275	     -5.25775848	     -7.44777843	      2.07482613	     -2.05533944	      2.09880084	     -3.35546420	     -9.04255725	     -3.15062955	     24.50811486	    104.37635690	      0.98657272	     -9.21455534	      0.08710096	     19.31746165	     97.97160638
      0.18333330	     -6.57686100	      0.71198622	     -0.66599235	      0.25113547	      1.29584236	     -0.57451595	      4.41341647	     -0.28099218	     -0.95380373	      4.44527061	      0.07758461	      4.83384759	    -10.62533642	     -7.45125301	      2.96955689	      0.84508747	     -1.88601377	      3.79972777	      0.06631776	      4.85649766	     -5.36408036	     -7.45125301	      2.19837216	     -2.19783460	      2.11049829	     -3.14218733	     -8.98523782	     -2.83501780	     23.72308603	    104.68264035	      1.10417596	     -9.16422575	      0.01512307	     18.56645255	     98.38301510
      0.20000000	     -6.59916068	      0.75765667	     -0.61468901	      0.24335503	      1.29946034	     -0.57145325	      4.42304265	     -0.31110444	     -1.03646387	      4.54364094	      0.07930149	      4.96860595	    -10.80709767	     -7.45156133	      3.21417451	      0.85867833	     -1.86061462	      4.24843745	      0.07414922	      4.98185453	     -5.38458827	     -7.45156133	      2.03027640	     -2.28836912	      2.11189667	     -3.11276250	     -8.93444525	     -2.81528062	     23.79931612	    104.77652598	      1.15660619	     -9.24734308	     -0.00280057	     18.70844899	     98.47079763
      0.21666670	     -6.78053537	      0.77001125	     -0.58279288	      0.24326296	      1.29950184	     -0.57105102	      4.61326601	     -0.29524270	     -0.93975366	      4.69480811	      0.08193986	      4.97153457	    -11.36687550	     -7.47745481	      3.60338759	      0.83021797	     -1.79324145	      4.68076179	      0.08169470	      5.23749015	     -5.39861844	     -7.47745481	      2.04225488	     -2.32566792	      1.77669255	     -2.99305466	     -8.79308788	     -3.42556503	     24.21163434	    107.25718207	      0.70531578	     -9.21967352	     -1.73667454	     19.57944954	    101.37415765
      0.23333330	     -6.85901917	      0.79397273	     -0.59597922	      0.25203887	      1.29618524	     -0.57460549	      4.60074488	     -0.33099723	     -0.99762954	      4.75538167	      0.08299707	      5.07374281	    -11.42640312	     -7.47752527	      3.69682260	      0.84988613	     -1.78937892	      4.85066718	      0.08466011	      5.29269461	     -5.41921423	     -7.47752527	      1.95592079	     -2.36087436	      1.81442892	     -3.00621326	     -8.80344702	     -3.42174991	     24.23481468	    107.15937818	      0.62481141	     -9.21048758	     -1.74158702	     19.59669716	    101.31367769
      0.25000000	     -7.12319605	      0.81552557	     -0.40542760	      0.25191834	      1.29605806	     -0.57428896	      4.70547796	     -0.35437318	     -0.93875254	      4.72271748	      0.08242697	      5.10253906	    -11.98007823	     -7.48010778	      4.15727564	      0.87852369	     -1.51591252	      5.30927000	      0.09266424	      5.60588863	     -5.58982460	     -7.48010778	      2.28759016	     -2.42815296	      1.68620055	     -2.80776874	     -8.79922574	     -2.75455471	     23.63033049	    106.82660561	      0.63221037	     -9.15818045	     -1.91613158	     19.18405076	    101.00732600
      0.26666670	     -7.23747880	      0.82533693	     -0.29813491	      0.24416697	      1.29596718	     -0.57146588	      4.89711543	     -0.36227025	     -1.01739803	      4.95040899	      0.08640094	      5.30871506	    -12.19102493	     -7.48019334	      4.48732313	      0.87216367	     -1.33231717	      5.70413858	      0.09955600	      5.81844561	     -5.59210581	     -7.48019334	      2.08287802	     -2.47987596	      1.71761359	     -2.55144903	     -8.77210553	     -2.72290594	     23.71695024	    106.84463047	      0.74859595	     -9.19736744	     -1.92429219	     19.26295852	    101.03537687
